<svg id="Capa_1" enable-background="new 0 0 462.581 462.581" height="512" viewBox="0 0 462.581 462.581" width="512" xmlns="http://www.w3.org/2000/svg" xmlns:xlink="http://www.w3.org/1999/xlink"><linearGradient id="lg1"><stop offset="0" stop-color="#20d6de"/><stop offset="1" stop-color="#5e309d"/></linearGradient><linearGradient id="SVGID_1_" gradientTransform="matrix(1 0 0 -1 0 475.933)" gradientUnits="userSpaceOnUse" x1="-7.71" x2="471.285" xlink:href="#lg1" y1="233.199" y2="233.199"/><linearGradient id="SVGID_2_" gradientTransform="matrix(1 0 0 -1 0 475.933)" gradientUnits="userSpaceOnUse" x1="-7.71" x2="471.285" xlink:href="#lg1" y1="375.728" y2="375.728"/><linearGradient id="SVGID_3_" gradientTransform="matrix(1 0 0 -1 0 475.933)" gradientUnits="userSpaceOnUse" x1="-7.71" x2="471.285" xlink:href="#lg1" y1="344.889" y2="344.889"/><linearGradient id="SVGID_4_" gradientTransform="matrix(1 0 0 -1 0 475.933)" gradientUnits="userSpaceOnUse" x1="-7.71" x2="471.285" xlink:href="#lg1" y1="252.373" y2="252.373"/><linearGradient id="SVGID_5_" gradientTransform="matrix(1 0 0 -1 0 475.933)" gradientUnits="userSpaceOnUse" x1="-7.71" x2="471.285" xlink:href="#lg1" y1="221.534" y2="221.534"/><linearGradient id="SVGID_6_" gradientTransform="matrix(1 0 0 -1 0 475.933)" gradientUnits="userSpaceOnUse" x1="-7.71" x2="471.285" xlink:href="#lg1" y1="236.954" y2="236.954"/><linearGradient id="SVGID_8_" gradientTransform="matrix(1 0 0 -1 0 475.933)" gradientUnits="userSpaceOnUse" x1="-7.71" x2="471.285" xlink:href="#lg1" y1="175.276" y2="175.276"/><linearGradient id="SVGID_9_" gradientTransform="matrix(1 0 0 -1 0 475.933)" gradientUnits="userSpaceOnUse" x1="-7.71" x2="471.285" xlink:href="#lg1" y1="144.438" y2="144.438"/><linearGradient id="SVGID_10_" gradientTransform="matrix(1 0 0 -1 0 475.933)" gradientUnits="userSpaceOnUse" x1="-7.71" x2="471.285" xlink:href="#lg1" y1="159.857" y2="159.857"/><linearGradient id="SVGID_12_" gradientTransform="matrix(1 0 0 -1 0 475.933)" gradientUnits="userSpaceOnUse" x1="-7.71" x2="471.285" xlink:href="#lg1" y1="314.051" y2="314.051"/><linearGradient id="SVGID_13_" gradientTransform="matrix(1 0 0 -1 0 475.933)" gradientUnits="userSpaceOnUse" x1="-7.71" x2="471.285" xlink:href="#lg1" y1="283.212" y2="283.212"/><linearGradient id="SVGID_14_" gradientTransform="matrix(1 0 0 -1 0 475.933)" gradientUnits="userSpaceOnUse" x1="-7.71" x2="471.285" xlink:href="#lg1" y1="298.631" y2="298.631"/><linearGradient id="SVGID_16_" gradientTransform="matrix(1 0 0 -1 0 475.933)" gradientUnits="userSpaceOnUse" x1="-7.71" x2="471.285" xlink:href="#lg1" y1="406.567" y2="406.567"/><linearGradient id="SVGID_18_" gradientTransform="matrix(1 0 0 -1 0 475.933)" gradientUnits="userSpaceOnUse" x1="-7.71" x2="471.285" xlink:href="#lg1" y1="391.147" y2="391.147"/><linearGradient id="SVGID_20_" gradientTransform="matrix(1 0 0 -1 0 475.933)" gradientUnits="userSpaceOnUse" x1="-7.71" x2="471.285" xlink:href="#lg1" y1="337.18" y2="337.18"/><linearGradient id="SVGID_21_" gradientTransform="matrix(1 0 0 -1 0 475.933)" gradientUnits="userSpaceOnUse" x1="-7.71" x2="471.285" xlink:href="#lg1" y1="306.341" y2="306.341"/><linearGradient id="SVGID_22_" gradientTransform="matrix(1 0 0 -1 0 475.933)" gradientUnits="userSpaceOnUse" x1="-7.71" x2="471.285" xlink:href="#lg1" y1="67.341" y2="67.341"/><linearGradient id="SVGID_23_" gradientTransform="matrix(1 0 0 -1 0 475.933)" gradientUnits="userSpaceOnUse" x1="-7.71" x2="471.285" xlink:href="#lg1" y1="398.857" y2="398.857"/><linearGradient id="SVGID_24_" gradientTransform="matrix(1 0 0 -1 0 475.933)" gradientUnits="userSpaceOnUse" x1="-7.71" x2="471.285" xlink:href="#lg1" y1="98.18" y2="98.18"/><g><g id="Gradient_outline_17_"><path d="m408.613 355.225v-54.569c0-4.258-3.452-7.71-7.71-7.71h-15.419c-12.774 0-23.129 10.355-23.129 23.129h-61.677v-38.548h15.419c.982 0 1.955-.186 2.868-.547l37.168-14.872h33.206c14.903-.001 26.983-12.083 26.982-26.986-.001-13.904-10.567-25.531-24.407-26.858-4.167-12.048-17.312-18.437-29.36-14.27-7.413 2.564-13.017 8.717-14.878 16.336l-33.059 13.23h-13.939v-23.129c0-4.258-3.452-7.71-7.71-7.71h-5.543c38.451-26.744 47.941-79.595 21.197-118.046s-79.595-47.941-118.046-21.197-47.941 79.595-21.197 118.046c5.751 8.268 12.929 15.446 21.197 21.197h-98.06c-4.258 0-7.71 3.452-7.71 7.71v46.258c-.016 2.936 1.637 5.626 4.263 6.939l26.575 13.245v49.203c0 4.258 3.452 7.71 7.71 7.71h53.968v30.839h-21.31l-29.212-14.648c-3.809-1.903-8.439-.359-10.343 3.45-.541 1.083-.82 2.278-.813 3.489v92.516c-.023 4.258 3.409 7.728 7.667 7.752 1.211.007 2.406-.272 3.489-.813l29.212-14.648h244.89c34.3 0 59.095-32.535 60.135-33.923 2.056-2.741 2.056-6.51 0-9.252-.962-1.281-22.187-29.051-52.424-33.323zm-46.258-139.375c0-4.258 3.452-7.71 7.71-7.71s7.71 3.452 7.71 7.71 3.452 7.71 7.71 7.71h3.855c6.387 0 11.565 5.178 11.565 11.565s-5.178 11.565-11.565 11.565h-26.984v-30.84zm-246.71 33.784-15.419-7.71v-33.784h15.419zm30.839 169.613-15.419 7.71v-67.568l15.419 7.71zm169.613-180.268c.982 0 1.955-.186 2.868-.547l27.971-11.194v21.942l-32.319 12.929h-56.342c-6.387 0-11.565-5.178-11.565-11.565s5.178-11.565 11.565-11.565zm-123.355 61.677v-15.99c12.478-1.265 23.626-8.351 30.068-19.112l-13.746-6.993c-3.768 5.574-9.677 9.339-16.321 10.4v-15.134c12.478-1.265 23.626-8.351 30.068-19.112l-13.746-6.993c-3.768 5.574-9.677 9.339-16.321 10.4v-29.982h92.516v15.419h-26.984c-14.903 0-26.984 12.081-26.984 26.984s12.081 26.984 26.984 26.984h26.984v23.129zm92.516 15.42v4.518l-34.031 34.031h-58.486v-38.548h92.517zm18.311-217.976c6.452 16.22 6.424 34.298-.077 50.498-8.141 3.718-16.993 5.62-25.943 5.574-25.072 0-46.258-14.124-46.258-30.839s21.186-30.839 46.258-30.839c8.977-.047 17.857 1.866 26.02 5.606zm-133.956 25.234c-.032-38.287 30.98-69.351 69.267-69.383 20.394-.017 39.761 8.947 52.947 24.505-4.71-.878-9.488-1.34-14.278-1.38-34.007 0-61.677 20.747-61.677 46.258s27.67 46.258 61.677 46.258c4.712-.039 9.412-.488 14.047-1.341-5.069 6.017-11.125 11.127-17.91 15.111-2.383 1.376-3.852 3.917-3.855 6.669v2.691h-61.67v-2.691c-.003-2.752-1.472-5.293-3.855-6.669-21.411-12.421-34.62-35.275-34.693-60.028zm-38.548 185.032v-100.226h46.258v29.983c-6.63-1.071-12.523-4.835-16.283-10.4l-13.746 6.993c6.434 10.751 17.565 17.835 30.029 19.112v15.134c-6.63-1.071-12.523-4.835-16.283-10.4l-13.746 6.993c6.434 10.751 17.565 17.835 30.029 19.112v23.7h-46.258zm146.483 107.935h-115.645v-46.258h115.645zm30.839 0h-15.419v-46.258h15.419zm46.258 0h-30.839v-46.258h30.839zm7.71-61.677h-89.324l23.129-23.129h66.195zm15.419-38.548c0-4.258 3.452-7.71 7.71-7.71h7.71v46.258h-15.419v-38.548zm18.11 100.225h-25.82v-46.258h25.681c5.59 14.905 5.639 31.321.139 46.258zm16.915-1.904c3.652-13.958 3.535-28.636-.339-42.534 12.405 4.214 23.514 11.553 32.257 21.31-8.672 9.661-19.654 16.964-31.918 21.224z" fill="url(#SVGID_1_)"/><path d="m192.742 92.495h15.419v15.419h-15.419z" fill="url(#SVGID_2_)"/><path d="m185.032 123.334h15.419v15.419h-15.419z" fill="url(#SVGID_3_)"/><path d="m15.419 215.85h15.419v15.419h-15.419z" fill="url(#SVGID_4_)"/><path d="m15.419 246.689h15.419v15.419h-15.419z" fill="url(#SVGID_5_)"/><path d="m0 231.269h15.419v15.419h-15.419z" fill="url(#SVGID_6_)"/><path d="m30.839 231.269h15.419v15.419h-15.419z" fill="url(#SVGID_6_)"/><path d="m61.677 292.947h15.419v15.419h-15.419z" fill="url(#SVGID_8_)"/><path d="m61.677 323.785h15.419v15.419h-15.419z" fill="url(#SVGID_9_)"/><path d="m46.258 308.366h15.419v15.419h-15.419z" fill="url(#SVGID_10_)"/><path d="m77.097 308.366h15.419v15.419h-15.419z" fill="url(#SVGID_10_)"/><path d="m431.742 154.172h15.419v15.419h-15.419z" fill="url(#SVGID_12_)"/><path d="m431.742 185.011h15.419v15.419h-15.419z" fill="url(#SVGID_13_)"/><path d="m416.323 169.592h15.419v15.419h-15.419z" fill="url(#SVGID_14_)"/><path d="m447.161 169.592h15.419v15.419h-15.419z" fill="url(#SVGID_14_)"/><path d="m107.935 61.656h15.419v15.419h-15.419z" fill="url(#SVGID_16_)"/><path d="m107.935 92.495h15.419v15.419h-15.419z" fill="url(#SVGID_2_)"/><path d="m92.516 77.076h15.419v15.419h-15.419z" fill="url(#SVGID_18_)"/><path d="m123.355 77.076h15.419v15.419h-15.419z" fill="url(#SVGID_18_)"/><path d="m0 131.043h138.774v15.419h-138.774z" fill="url(#SVGID_20_)"/><path d="m15.419 161.882h123.355v15.419h-123.355z" fill="url(#SVGID_21_)"/><path d="m15.419 400.882h84.806v15.419h-84.806z" fill="url(#SVGID_22_)"/><path d="m400.903 138.753c34.064 0 61.677-27.614 61.677-61.677s-27.614-61.677-61.677-61.677-61.677 27.614-61.677 61.677c.038 34.047 27.63 61.639 61.677 61.677zm0-15.419c-3.242-.003-6.475-.347-9.645-1.025l13.469-7.71c1.648-.94 2.892-2.456 3.492-4.256l4.896-14.695 7.471 3.739c.636.316 1.314.542 2.012.671l16.452 3.122c-8.612 12.6-22.885 20.14-38.147 20.154zm45.487-54.346c1.235 6.558.972 13.31-.771 19.752l-19.089-3.624-14.463-7.232c-3.801-1.918-8.438-.392-10.356 3.41-.172.34-.318.692-.437 1.054l-6.777 20.33-20.685 11.827c-6.769-4.89-12.096-11.513-15.419-19.174l20.446-2.914c2.894-.411 5.306-2.423 6.229-5.196l6.492-19.467 15.89-5.297 19.99 13.323c2.573 1.694 5.908 1.694 8.481 0zm-91.745 8.088c.061-25.548 20.821-46.209 46.368-46.148 16.508.039 31.745 8.873 39.98 23.181l-9.252 6.021-18.889-12.598c-1.979-1.321-4.457-1.654-6.715-.902l-23.129 7.71c-2.305.767-4.113 2.576-4.88 4.88l-6.168 18.603-17.162 2.452c-.068-1.064-.153-2.12-.153-3.199z" fill="url(#SVGID_23_)"/><path d="m0 370.043h100.226v15.419h-100.226z" fill="url(#SVGID_24_)"/></g></g></svg>